<?xml version="1.0" encoding="utf-8"?>
<!-- Generator: Adobe Illustrator 22.0.1, SVG Export Plug-In . SVG Version: 6.00 Build 0)  -->
<svg version="1.1" id="Layer_1" xmlns="http://www.w3.org/2000/svg" xmlns:xlink="http://www.w3.org/1999/xlink" x="0px" y="0px"
	 viewBox="0 0 164 352.3" style="enable-background:new 0 0 164 352.3;" xml:space="preserve">
<style type="text/css">
	.st0{fill:#7ACDCF;}
	.st1{fill:#FFFFFF;}
	.st2{opacity:0.81;}
	.st3{opacity:0.62;}
	.st4{opacity:0.67;}
</style>
<g>
	<g>
		<g>
			<path class="st0" d="M29.3,306.7h-1.5c-14.8,0-18.5-2.2-18.5-22.2c0-21.1,2.9-24,24-24s24,2.9,24,24c0,20-3.8,22.2-18.5,22.2
				h-0.5l-8.9,7.4v-7.4H29.3z"/>
			<path class="st1" d="M33.3,262c11.1,0,16.2,1,18.8,3.7c2.7,2.7,3.7,7.8,3.7,18.8c0,9.8-0.9,14.8-3.1,17.4
				c-2.1,2.4-6,3.3-13.9,3.3h-1.1l-0.8,0.7l-6,5v-2.7v-3h-3c-8,0-11.9-0.9-13.9-3.3c-2.2-2.6-3.1-7.6-3.1-17.4
				c0-11.1,1-16.2,3.7-18.8S22.2,262,33.3,262 M33.3,259c-21.9,0-25.5,3.6-25.5,25.5c0,20,3.6,23.7,20,23.7v9.1l10.9-9.1
				c16.4,0,20-3.6,20-23.7C58.8,262.6,55.1,259,33.3,259L33.3,259z"/>
		</g>
		<g>
			<path class="st0" d="M123.4,310.5h-0.5c-14.8,0-18.5-2.2-18.5-22.2c0-21.1,2.9-24,24-24s24,2.9,24,24c0,20-3.8,22.2-18.5,22.2
				h-1.5v7.4L123.4,310.5z"/>
			<path class="st1" d="M128.3,265.8c11.1,0,16.2,1,18.8,3.7s3.7,7.8,3.7,18.8c0,9.8-0.9,14.8-3.1,17.4c-2.1,2.4-6,3.3-13.9,3.3h-3
				v3v2.7l-6-5L124,309h-1.1c-8,0-11.9-0.9-13.9-3.3c-2.2-2.6-3.1-7.6-3.1-17.4c0-11.1,1-16.2,3.7-18.8
				C112.2,266.7,117.3,265.8,128.3,265.8 M128.3,262.8c-21.9,0-25.5,3.6-25.5,25.5c0,20,3.6,23.7,20,23.7l10.9,9.1V312
				c16.4,0,20-3.6,20-23.7C153.8,266.4,150.2,262.8,128.3,262.8L128.3,262.8z"/>
		</g>
		<g>
			<path class="st0" d="M39.3,334.9h-1.5c-13.5,0-14.9-3.4-14.9-17.9c0-17,2.4-19.4,19.4-19.4S61.6,300,61.6,317
				c0,16.2-2.8,17.9-14.9,17.9h-0.5l-6.9,5.7C39.3,340.6,39.3,334.9,39.3,334.9z"/>
			<path class="st1" d="M42.3,299.2c8.8,0,13,0.8,15,2.8s2.8,6.3,2.8,15c0,7.8-0.7,11.9-2.4,13.9c-1.6,1.8-4.6,2.5-11,2.5h-1.1
				l-0.8,0.7l-4,3.3v-1v-3h-3c-6.3,0-9.4-0.7-11-2.5c-1.7-2-2.4-6.1-2.4-13.9c0-8.8,0.8-13,2.8-15C29.3,300,33.5,299.2,42.3,299.2
				 M42.3,296.2c-17.9,0-20.9,3-20.9,20.9c0,16.4,3,19.4,16.4,19.4v7.4l8.9-7.4c13.4,0,16.4-3,16.4-19.4
				C63.1,299.2,60.2,296.2,42.3,296.2L42.3,296.2z"/>
		</g>
		<g>
			<path class="st0" d="M111.4,332.9h-0.5c-13.5,0-14.9-3.4-14.9-17.9c0-17,2.4-19.4,19.4-19.4s19.4,2.4,19.4,19.4
				c0,16.2-2.8,17.9-14.9,17.9h-1.5v5.7L111.4,332.9z"/>
			<path class="st1" d="M115.3,297.2c8.8,0,13,0.8,15,2.8s2.8,6.3,2.8,15c0,7.8-0.7,11.9-2.4,13.9c-1.6,1.8-4.6,2.5-11,2.5h-3v3v1
				l-4-3.3l-0.8-0.7h-1.1c-6.3,0-9.4-0.7-11-2.5c-1.7-2-2.4-6.1-2.4-13.9c0-8.8,0.8-13,2.8-15C102.4,298,106.6,297.2,115.3,297.2
				 M115.3,294.2c-17.9,0-20.9,3-20.9,20.9c0,16.4,3,19.4,16.4,19.4l8.9,7.4v-7.4c13.4,0,16.4-3,16.4-19.4
				C136.2,297.2,133.2,294.2,115.3,294.2L115.3,294.2z"/>
		</g>
		<g>
			<path class="st0" d="M29.1,266.9h-1.5c-17.9,0-21-3.8-21-25.1c0-23.9,3.3-27.2,27.2-27.2S61,217.9,61,241.8
				c0,21.4-3.1,25.1-21,25.1h-0.5l-10.2,8.5v-8.5H29.1z"/>
			<path class="st1" d="M33.8,216.1c12.5,0,18.3,1.1,21.4,4.2c3.1,3.1,4.2,8.9,4.2,21.4c0,11.1-1,16.8-3.6,19.8
				c-2.4,2.8-6.8,3.8-15.9,3.8h-1.1L38,266l-7.4,6.1v-3.8v-3h-3c-9.1,0-13.5-1.1-15.9-3.8c-2.6-3-3.6-8.7-3.6-19.8
				c0-12.5,1.1-18.3,4.2-21.4C15.4,217.3,21.2,216.1,33.8,216.1 M33.8,213.1c-24.6,0-28.7,4.1-28.7,28.7c0,22.5,4.1,26.6,22.5,26.6
				v10.2l12.3-10.2c18.4,0,22.5-4.1,22.5-26.6C62.4,217.2,58.3,213.1,33.8,213.1L33.8,213.1z"/>
		</g>
		<g>
			<path class="st0" d="M75.3,334.3h-1.5c-17.9,0-21-3.8-21-25.1c0-23.9,3.3-27.2,27.2-27.2s27.2,3.3,27.2,27.2
				c0,21.4-3.1,25.1-21,25.1h-0.5l-10.2,8.5v-8.5H75.3z"/>
			<path class="st1" d="M79.9,283.5c12.5,0,18.3,1.1,21.4,4.2c3.1,3.1,4.2,8.9,4.2,21.4c0,11.1-1,16.8-3.6,19.8
				c-2.4,2.8-6.8,3.8-15.9,3.8h-1l-0.8,0.7l-7.4,6.1v-3.8v-3h-3c-9.1,0-13.5-1.1-15.9-3.8c-2.6-3-3.6-8.7-3.6-19.8
				c0-12.5,1.1-18.3,4.2-21.4C61.6,284.7,67.4,283.5,79.9,283.5 M79.9,280.5c-24.6,0-28.7,4.1-28.7,28.7c0,22.5,4.1,26.6,22.5,26.6
				V346L86,335.8c18.4,0,22.5-4.1,22.5-26.6C108.6,284.6,104.5,280.5,79.9,280.5L79.9,280.5z"/>
		</g>
		<g>
			<path class="st0" d="M30.1,223.9h-0.5c-17.9,0-21-3.8-21-25.1c0-23.9,3.3-27.2,27.2-27.2S63,174.9,63,198.8
				c0,21.4-3.1,25.1-21,25.1h-1.5v8.5L30.1,223.9z"/>
			<path class="st1" d="M35.7,173.1c12.5,0,18.3,1.1,21.4,4.2c3.1,3.1,4.2,8.9,4.2,21.4c0,11.1-1,16.8-3.6,19.8
				c-2.4,2.8-6.8,3.8-15.9,3.8h-3v3v3.8l-7.4-6.1l-0.8-0.7h-1.1c-9.1,0-13.5-1.1-15.9-3.8c-2.6-3-3.6-8.7-3.6-19.8
				c0-12.5,1.1-18.3,4.2-21.4C17.3,174.3,23.1,173.1,35.7,173.1 M35.7,170.1c-24.6,0-28.7,4.1-28.7,28.7c0,22.5,4.1,26.6,22.5,26.6
				l12.3,10.2v-10.2c18.4,0,22.5-4.1,22.5-26.6C64.3,174.2,60.2,170.1,35.7,170.1L35.7,170.1z"/>
		</g>
		<g>
			<path class="st0" d="M73.4,288.2h-0.8c-17.9,0-21-3.8-21-25.1c0-23.9,3.3-27.2,27.2-27.2s27.2,3.3,27.2,27.2
				c0,21.4-3.1,25.1-21,25.1h-1l-5.3,8.8L73.4,288.2z"/>
			<path class="st1" d="M78.7,237.4c12.5,0,18.3,1.1,21.4,4.2c3.1,3.1,4.2,8.9,4.2,21.4c0,11.1-1,16.8-3.6,19.8
				c-2.4,2.8-6.8,3.8-15.9,3.8h-1.7l-0.9,1.5l-3.6,6l-3.6-6l-0.9-1.5h-1.7c-9.1,0-13.5-1.1-15.9-3.8c-2.6-3-3.6-8.7-3.6-19.8
				c0-12.5,1.1-18.3,4.2-21.4C60.4,238.5,66.2,237.4,78.7,237.4 M78.7,234.4c-24.6,0-28.7,4.1-28.7,28.7c0,22.5,4.1,26.6,22.5,26.6
				l6.1,10.2l6.1-10.2c18.4,0,22.5-4.1,22.5-26.6C107.4,238.5,103.3,234.4,78.7,234.4L78.7,234.4z"/>
		</g>
		<g>
			<path class="st0" d="M72.1,239h-0.5c-17.9,0-21-3.8-21-25.1c0-23.9,3.3-27.2,27.2-27.2S105,190,105,213.9
				c0,21.4-3.1,25.1-21,25.1h-1.5v8.5L72.1,239z"/>
			<path class="st1" d="M77.7,188.2c12.5,0,18.3,1.1,21.4,4.2c3.1,3.1,4.2,8.9,4.2,21.4c0,11.1-1,16.8-3.6,19.8
				c-2.4,2.8-6.8,3.8-15.9,3.8h-3v3v3.8l-7.4-6.1l-0.8-0.7h-1.1c-9.1,0-13.5-1.1-15.9-3.8c-2.6-3-3.6-8.7-3.6-19.8
				c0-12.5,1.1-18.3,4.2-21.4C59.3,189.4,65.1,188.2,77.7,188.2 M77.7,185.2c-24.6,0-28.7,4.1-28.7,28.7c0,22.5,4.1,26.6,22.5,26.6
				l12.3,10.2v-10.2c18.4,0,22.5-4.1,22.5-26.6C106.3,189.3,102.2,185.2,77.7,185.2L77.7,185.2z"/>
		</g>
		<g>
			<path class="st0" d="M39.3,189.9h-1.5c-17.9,0-21-3.8-21-25.1c0-23.9,3.3-27.2,27.2-27.2s27.2,3.3,27.2,27.2
				c0,21.4-3.1,25.1-21,25.1h-0.5l-10.2,8.5v-8.5H39.3z"/>
			<path class="st1" d="M43.9,139.1c12.5,0,18.3,1.1,21.4,4.2c3.1,3.1,4.2,8.9,4.2,21.4c0,11.1-1,16.8-3.6,19.8
				c-2.4,2.8-6.8,3.8-15.9,3.8h-1l-0.8,0.7l-7.4,6.1v-3.8v-3h-3c-9.1,0-13.5-1.1-15.9-3.8c-2.6-3-3.6-8.7-3.6-19.8
				c0-12.5,1.1-18.3,4.2-21.4C25.6,140.2,31.4,139.1,43.9,139.1 M43.9,136.1c-24.6,0-28.7,4.1-28.7,28.7c0,22.5,4.1,26.6,22.5,26.6
				v10.2L50,191.4c18.4,0,22.5-4.1,22.5-26.6C72.6,140.2,68.5,136.1,43.9,136.1L43.9,136.1z"/>
		</g>
		<g>
			<path class="st0" d="M122.1,270.9h-0.5c-17.9,0-21-3.8-21-25.1c0-23.9,3.3-27.2,27.2-27.2s27.2,3.3,27.2,27.2
				c0,21.4-3.1,25.1-21,25.1h-1.5v8.5L122.1,270.9z"/>
			<path class="st1" d="M127.7,220.1c12.5,0,18.3,1.1,21.4,4.2c3.1,3.1,4.2,8.9,4.2,21.4c0,11.1-1,16.8-3.6,19.8
				c-2.4,2.8-6.8,3.8-15.9,3.8h-3v3v3.8l-7.4-6.1l-0.8-0.7h-1.1c-9.1,0-13.5-1.1-15.9-3.8c-2.6-3-3.6-8.7-3.6-19.8
				c0-12.5,1.1-18.3,4.2-21.4S115.1,220.1,127.7,220.1 M127.7,217.1c-24.6,0-28.7,4.1-28.7,28.7c0,22.5,4.1,26.6,22.5,26.6
				l12.3,10.2v-10.2c18.4,0,22.5-4.1,22.5-26.6C156.3,221.2,152.2,217.1,127.7,217.1L127.7,217.1z"/>
		</g>
		<g>
			<path class="st0" d="M126.3,223.9h-1.5c-17.9,0-21-3.8-21-25.1c0-23.9,3.3-27.2,27.2-27.2s27.2,3.3,27.2,27.2
				c0,21.4-3.1,25.1-21,25.1h-0.5l-10.2,8.5v-8.5H126.3z"/>
			<path class="st1" d="M130.9,173.1c12.5,0,18.3,1.1,21.4,4.2c3.1,3.1,4.2,8.9,4.2,21.4c0,11.1-1,16.8-3.6,19.8
				c-2.4,2.8-6.8,3.8-15.9,3.8h-1l-0.8,0.7l-7.4,6.1v-3.8v-3h-3c-9.1,0-13.5-1.1-15.9-3.8c-2.6-3-3.6-8.7-3.6-19.8
				c0-12.5,1.1-18.3,4.2-21.4C112.6,174.2,118.4,173.1,130.9,173.1 M130.9,170.1c-24.6,0-28.7,4.1-28.7,28.7
				c0,22.5,4.1,26.6,22.5,26.6v10.2l12.3-10.2c18.4,0,22.5-4.1,22.5-26.6C159.6,174.2,155.5,170.1,130.9,170.1L130.9,170.1z"/>
		</g>
		<g>
			<path class="st0" d="M115.1,188.9h-0.5c-17.9,0-21-3.8-21-25.1c0-23.9,3.3-27.2,27.2-27.2s27.2,3.3,27.2,27.2
				c0,21.4-3.1,25.1-21,25.1h-1.5v8.5L115.1,188.9z"/>
			<path class="st1" d="M120.7,138.1c12.5,0,18.3,1.1,21.4,4.2c3.1,3.1,4.2,8.9,4.2,21.4c0,11.1-1,16.8-3.6,19.8
				c-2.4,2.8-6.8,3.8-15.9,3.8h-3v3v3.8l-7.4-6.1l-0.8-0.7h-1.1c-9.1,0-13.5-1.1-15.9-3.8c-2.6-3-3.6-8.7-3.6-19.8
				c0-12.5,1.1-18.3,4.2-21.4S108.1,138.1,120.7,138.1 M120.7,135.1c-24.6,0-28.7,4.1-28.7,28.7c0,22.5,4.1,26.6,22.5,26.6
				l12.3,10.2v-10.2c18.4,0,22.5-4.1,22.5-26.6C149.3,139.2,145.2,135.1,120.7,135.1L120.7,135.1z"/>
		</g>
		<g>
			<path class="st0" d="M75.4,192.2h-0.8c-17.9,0-21-3.8-21-25.1c0-23.9,3.3-27.2,27.2-27.2s27.2,3.3,27.2,27.2
				c0,21.4-3.1,25.1-21,25.1h-1l-5.3,8.8L75.4,192.2z"/>
			<path class="st1" d="M80.7,141.4c12.5,0,18.3,1.1,21.4,4.2c3.1,3.1,4.2,8.9,4.2,21.4c0,11.1-1,16.8-3.6,19.8
				c-2.4,2.8-6.8,3.8-15.9,3.8h-1.7l-0.9,1.5l-3.6,6l-3.6-6l-0.9-1.5h-1.7c-9.1,0-13.5-1.1-15.9-3.8c-2.6-3-3.6-8.7-3.6-19.8
				c0-12.5,1.1-18.3,4.2-21.4C62.4,142.5,68.2,141.4,80.7,141.4 M80.7,138.4c-24.6,0-28.7,4.1-28.7,28.7c0,22.5,4.1,26.6,22.5,26.6
				l6.1,10.2l6.1-10.2c18.4,0,22.5-4.1,22.5-26.6C109.4,142.5,105.3,138.4,80.7,138.4L80.7,138.4z"/>
		</g>
	</g>
	<g>
		<g class="st2">
			<polygon class="st0" points="65.5,129.2 89.3,18.2 107.2,130.8 			"/>
			<path class="st1" d="M89.1,26.4l16.3,102.8l-38-1.4L89.1,26.4 M89.5,10.1L63.7,130.6l45.3,1.7L89.5,10.1L89.5,10.1z"/>
		</g>
		<g class="st3">
			<polygon class="st0" points="89.5,129.4 143.8,58.1 125,132.5 			"/>
			<path class="st1" d="M140.5,64.9l-16.6,66l-31.5-2.7L140.5,64.9 M147,51.4l-60.3,79.2l39.5,3.4L147,51.4L147,51.4z"/>
		</g>
		<g class="st4">
			<polygon class="st0" points="25.5,58.3 80.8,129.2 45.7,130 			"/>
			<path class="st1" d="M29,65.3l48.7,62.5l-31,0.7L29,65.3 M22,51.4l22.5,80.2l39.3-0.9L22,51.4L22,51.4z"/>
		</g>
	</g>
</g>
</svg>
