<?xml version="1.0" encoding="utf-8"?>
<!-- Generator: Adobe Illustrator 22.0.1, SVG Export Plug-In . SVG Version: 6.00 Build 0)  -->
<svg version="1.1" id="Layer_1" xmlns="http://www.w3.org/2000/svg" xmlns:xlink="http://www.w3.org/1999/xlink" x="0px" y="0px"
	 viewBox="0 0 198 359.3" style="enable-background:new 0 0 198 359.3;" xml:space="preserve">
<style type="text/css">
	.st0{fill:#FFFFFF;}
	.st1{fill:#2C314F;}
	.st2{opacity:0.81;}
	.st3{fill:#7ABCFC;}
	.st4{opacity:0.62;}
	.st5{opacity:0.67;}
	.st6{fill:#EFEEE9;}
	.st7{fill:#2C314F;stroke:#EFEEE9;stroke-width:2;stroke-miterlimit:10;}
	.st8{fill:none;stroke:#7ABCFC;stroke-width:4;stroke-miterlimit:10;}
	.st9{fill:#2C314F;stroke:#7ABCFC;stroke-width:2;stroke-miterlimit:10;}
</style>
<g>
	<g>
		<g>
			<path class="st3" d="M44.3,313.7h-1.5c-14.8,0-18.5-2.2-18.5-22.2c0-21.1,2.9-24,24-24c21.1,0,24,2.9,24,24
				c0,20-3.8,22.2-18.5,22.2h-0.5l-8.9,7.4V313.7z"/>
			<path class="st0" d="M48.3,269c11.1,0,16.2,1,18.8,3.7c2.7,2.7,3.7,7.8,3.7,18.8c0,9.8-0.9,14.8-3.1,17.4
				c-2.1,2.4-6,3.3-13.9,3.3h-1.1l-0.8,0.7l-6,5v-2.7v-3h-3c-8,0-11.9-0.9-13.9-3.3c-2.2-2.6-3.1-7.6-3.1-17.4
				c0-11.1,1-16.2,3.7-18.8S37.2,269,48.3,269 M48.3,266c-21.9,0-25.5,3.6-25.5,25.5c0,20,3.6,23.7,20,23.7v9.1l10.9-9.1
				c16.4,0,20-3.6,20-23.7C73.8,269.6,70.1,266,48.3,266L48.3,266z"/>
		</g>
		<g>
			<path class="st3" d="M138.4,317.5h-0.5c-14.8,0-18.5-2.2-18.5-22.2c0-21.1,2.9-24,24-24c21.1,0,24,2.9,24,24
				c0,20-3.8,22.2-18.5,22.2h-1.5v7.4L138.4,317.5z"/>
			<path class="st0" d="M143.3,272.8c11.1,0,16.2,1,18.8,3.7s3.7,7.8,3.7,18.8c0,9.8-0.9,14.8-3.1,17.4c-2.1,2.4-6,3.3-13.9,3.3h-3
				v3v2.7l-6-5L139,316h-1.1c-8,0-11.9-0.9-13.9-3.3c-2.2-2.6-3.1-7.6-3.1-17.4c0-11.1,1-16.2,3.7-18.8
				C127.2,273.7,132.3,272.8,143.3,272.8 M143.3,269.8c-21.9,0-25.5,3.6-25.5,25.5c0,20,3.6,23.7,20,23.7l10.9,9.1V319
				c16.4,0,20-3.6,20-23.7C168.8,273.4,165.2,269.8,143.3,269.8L143.3,269.8z"/>
		</g>
		<g>
			<path class="st3" d="M54.3,341.9h-1.5c-13.5,0-14.9-3.4-14.9-17.9c0-17,2.4-19.4,19.4-19.4S76.6,307,76.6,324
				c0,16.2-2.8,17.9-14.9,17.9h-0.5l-6.9,5.7V341.9z"/>
			<path class="st0" d="M57.3,306.2c8.8,0,13,0.8,15,2.8c2,2,2.8,6.3,2.8,15c0,7.8-0.7,11.9-2.4,13.9c-1.6,1.8-4.6,2.5-11,2.5h-1.1
				l-0.8,0.7l-4,3.3v-1v-3h-3c-6.3,0-9.4-0.7-11-2.5c-1.7-2-2.4-6.1-2.4-13.9c0-8.8,0.8-13,2.8-15C44.3,307,48.5,306.2,57.3,306.2
				 M57.3,303.2c-17.9,0-20.9,3-20.9,20.9c0,16.4,3,19.4,16.4,19.4v7.4l8.9-7.4c13.4,0,16.4-3,16.4-19.4
				C78.1,306.2,75.2,303.2,57.3,303.2L57.3,303.2z"/>
		</g>
		<g>
			<path class="st3" d="M126.4,339.9h-0.5c-13.5,0-14.9-3.4-14.9-17.9c0-17,2.4-19.4,19.4-19.4s19.4,2.4,19.4,19.4
				c0,16.2-2.8,17.9-14.9,17.9h-1.5v5.7L126.4,339.9z"/>
			<path class="st0" d="M130.3,304.2c8.8,0,13,0.8,15,2.8c2,2,2.8,6.3,2.8,15c0,7.8-0.7,11.9-2.4,13.9c-1.6,1.8-4.6,2.5-11,2.5h-3v3
				v1l-4-3.3l-0.8-0.7h-1.1c-6.3,0-9.4-0.7-11-2.5c-1.7-2-2.4-6.1-2.4-13.9c0-8.8,0.8-13,2.8-15C117.4,305,121.6,304.2,130.3,304.2
				 M130.3,301.2c-17.9,0-20.9,3-20.9,20.9c0,16.4,3,19.4,16.4,19.4l8.9,7.4v-7.4c13.4,0,16.4-3,16.4-19.4
				C151.2,304.2,148.2,301.2,130.3,301.2L130.3,301.2z"/>
		</g>
		<g>
			<path class="st3" d="M44.1,273.9h-1.5c-17.9,0-21-3.8-21-25.1c0-23.9,3.3-27.2,27.2-27.2c23.9,0,27.2,3.3,27.2,27.2
				c0,21.4-3.1,25.1-21,25.1h-0.5l-10.2,8.5V273.9z"/>
			<path class="st0" d="M48.8,223.1c12.5,0,18.3,1.1,21.4,4.2c3.1,3.1,4.2,8.9,4.2,21.4c0,11.1-1,16.8-3.6,19.8
				c-2.4,2.8-6.8,3.8-15.9,3.8h-1.1l-0.8,0.7l-7.4,6.1v-3.8v-3h-3c-9.1,0-13.5-1.1-15.9-3.8c-2.6-3-3.6-8.7-3.6-19.8
				c0-12.5,1.1-18.3,4.2-21.4C30.4,224.3,36.2,223.1,48.8,223.1 M48.8,220.1c-24.6,0-28.7,4.1-28.7,28.7c0,22.5,4.1,26.6,22.5,26.6
				v10.2l12.3-10.2c18.4,0,22.5-4.1,22.5-26.6C77.4,224.2,73.3,220.1,48.8,220.1L48.8,220.1z"/>
		</g>
		<g>
			<path class="st3" d="M90.3,341.3h-1.5c-17.9,0-21-3.8-21-25.1c0-23.9,3.3-27.2,27.2-27.2c23.9,0,27.2,3.3,27.2,27.2
				c0,21.4-3.1,25.1-21,25.1h-0.5l-10.2,8.5V341.3z"/>
			<path class="st0" d="M94.9,290.5c12.5,0,18.3,1.1,21.4,4.2c3.1,3.1,4.2,8.9,4.2,21.4c0,11.1-1,16.8-3.6,19.8
				c-2.4,2.8-6.8,3.8-15.9,3.8H100l-0.8,0.7l-7.4,6.1v-3.8v-3h-3c-9.1,0-13.5-1.1-15.9-3.8c-2.6-3-3.6-8.7-3.6-19.8
				c0-12.5,1.1-18.3,4.2-21.4C76.6,291.7,82.4,290.5,94.9,290.5 M94.9,287.5c-24.6,0-28.7,4.1-28.7,28.7c0,22.5,4.1,26.6,22.5,26.6
				v10.2l12.3-10.2c18.4,0,22.5-4.1,22.5-26.6C123.6,291.6,119.5,287.5,94.9,287.5L94.9,287.5z"/>
		</g>
		<g>
			<path class="st3" d="M45.1,230.9h-0.5c-17.9,0-21-3.8-21-25.1c0-23.9,3.3-27.2,27.2-27.2c23.9,0,27.2,3.3,27.2,27.2
				c0,21.4-3.1,25.1-21,25.1h-1.5v8.5L45.1,230.9z"/>
			<path class="st0" d="M50.7,180.1c12.5,0,18.3,1.1,21.4,4.2c3.1,3.1,4.2,8.9,4.2,21.4c0,11.1-1,16.8-3.6,19.8
				c-2.4,2.8-6.8,3.8-15.9,3.8h-3v3v3.8l-7.4-6.1l-0.8-0.7h-1.1c-9.1,0-13.5-1.1-15.9-3.8c-2.6-3-3.6-8.7-3.6-19.8
				c0-12.5,1.1-18.3,4.2-21.4C32.3,181.3,38.1,180.1,50.7,180.1 M50.7,177.1c-24.6,0-28.7,4.1-28.7,28.7c0,22.5,4.1,26.6,22.5,26.6
				l12.3,10.2v-10.2c18.4,0,22.5-4.1,22.5-26.6C79.3,181.2,75.2,177.1,50.7,177.1L50.7,177.1z"/>
		</g>
		<g>
			<path class="st3" d="M88.4,295.2h-0.8c-17.9,0-21-3.8-21-25.1c0-23.9,3.3-27.2,27.2-27.2c23.9,0,27.2,3.3,27.2,27.2
				c0,21.4-3.1,25.1-21,25.1H99l-5.3,8.8L88.4,295.2z"/>
			<path class="st0" d="M93.7,244.4c12.5,0,18.3,1.1,21.4,4.2c3.1,3.1,4.2,8.9,4.2,21.4c0,11.1-1,16.8-3.6,19.8
				c-2.4,2.8-6.8,3.8-15.9,3.8h-1.7l-0.9,1.5l-3.6,6l-3.6-6l-0.9-1.5h-1.7c-9.1,0-13.5-1.1-15.9-3.8c-2.6-3-3.6-8.7-3.6-19.8
				c0-12.5,1.1-18.3,4.2-21.4C75.4,245.5,81.2,244.4,93.7,244.4 M93.7,241.4c-24.6,0-28.7,4.1-28.7,28.7c0,22.5,4.1,26.6,22.5,26.6
				l6.1,10.2l6.1-10.2c18.4,0,22.5-4.1,22.5-26.6C122.4,245.5,118.3,241.4,93.7,241.4L93.7,241.4z"/>
		</g>
		<g>
			<path class="st3" d="M87.1,246h-0.5c-17.9,0-21-3.8-21-25.1c0-23.9,3.3-27.2,27.2-27.2c23.9,0,27.2,3.3,27.2,27.2
				c0,21.4-3.1,25.1-21,25.1h-1.5v8.5L87.1,246z"/>
			<path class="st0" d="M92.7,195.2c12.5,0,18.3,1.1,21.4,4.2c3.1,3.1,4.2,8.9,4.2,21.4c0,11.1-1,16.8-3.6,19.8
				c-2.4,2.8-6.8,3.8-15.9,3.8h-3v3v3.8l-7.4-6.1l-0.8-0.7h-1.1c-9.1,0-13.5-1.1-15.9-3.8c-2.6-3-3.6-8.7-3.6-19.8
				c0-12.5,1.1-18.3,4.2-21.4C74.3,196.4,80.1,195.2,92.7,195.2 M92.7,192.2c-24.6,0-28.7,4.1-28.7,28.7c0,22.5,4.1,26.6,22.5,26.6
				l12.3,10.2v-10.2c18.4,0,22.5-4.1,22.5-26.6C121.3,196.3,117.2,192.2,92.7,192.2L92.7,192.2z"/>
		</g>
		<g>
			<path class="st3" d="M54.3,196.9h-1.5c-17.9,0-21-3.8-21-25.1c0-23.9,3.3-27.2,27.2-27.2c23.9,0,27.2,3.3,27.2,27.2
				c0,21.4-3.1,25.1-21,25.1h-0.5l-10.2,8.5V196.9z"/>
			<path class="st0" d="M58.9,146.1c12.5,0,18.3,1.1,21.4,4.2c3.1,3.1,4.2,8.9,4.2,21.4c0,11.1-1,16.8-3.6,19.8
				c-2.4,2.8-6.8,3.8-15.9,3.8H64l-0.8,0.7l-7.4,6.1v-3.8v-3h-3c-9.1,0-13.5-1.1-15.9-3.8c-2.6-3-3.6-8.7-3.6-19.8
				c0-12.5,1.1-18.3,4.2-21.4C40.6,147.2,46.4,146.1,58.9,146.1 M58.9,143.1c-24.6,0-28.7,4.1-28.7,28.7c0,22.5,4.1,26.6,22.5,26.6
				v10.2l12.3-10.2c18.4,0,22.5-4.1,22.5-26.6C87.6,147.2,83.5,143.1,58.9,143.1L58.9,143.1z"/>
		</g>
		<g>
			<path class="st3" d="M137.1,277.9h-0.5c-17.9,0-21-3.8-21-25.1c0-23.9,3.3-27.2,27.2-27.2c23.9,0,27.2,3.3,27.2,27.2
				c0,21.4-3.1,25.1-21,25.1h-1.5v8.5L137.1,277.9z"/>
			<path class="st0" d="M142.7,227.1c12.5,0,18.3,1.1,21.4,4.2c3.1,3.1,4.2,8.9,4.2,21.4c0,11.1-1,16.8-3.6,19.8
				c-2.4,2.8-6.8,3.8-15.9,3.8h-3v3v3.8l-7.4-6.1l-0.8-0.7h-1.1c-9.1,0-13.5-1.1-15.9-3.8c-2.6-3-3.6-8.7-3.6-19.8
				c0-12.5,1.1-18.3,4.2-21.4S130.1,227.1,142.7,227.1 M142.7,224.1c-24.6,0-28.7,4.1-28.7,28.7c0,22.5,4.1,26.6,22.5,26.6
				l12.3,10.2v-10.2c18.4,0,22.5-4.1,22.5-26.6C171.3,228.2,167.2,224.1,142.7,224.1L142.7,224.1z"/>
		</g>
		<g>
			<path class="st3" d="M141.3,230.9h-1.5c-17.9,0-21-3.8-21-25.1c0-23.9,3.3-27.2,27.2-27.2c23.9,0,27.2,3.3,27.2,27.2
				c0,21.4-3.1,25.1-21,25.1h-0.5l-10.2,8.5V230.9z"/>
			<path class="st0" d="M145.9,180.1c12.5,0,18.3,1.1,21.4,4.2c3.1,3.1,4.2,8.9,4.2,21.4c0,11.1-1,16.8-3.6,19.8
				c-2.4,2.8-6.8,3.8-15.9,3.8H151l-0.8,0.7l-7.4,6.1v-3.8v-3h-3c-9.1,0-13.5-1.1-15.9-3.8c-2.6-3-3.6-8.7-3.6-19.8
				c0-12.5,1.1-18.3,4.2-21.4C127.6,181.2,133.4,180.1,145.9,180.1 M145.9,177.1c-24.6,0-28.7,4.1-28.7,28.7
				c0,22.5,4.1,26.6,22.5,26.6v10.2l12.3-10.2c18.4,0,22.5-4.1,22.5-26.6C174.6,181.2,170.5,177.1,145.9,177.1L145.9,177.1z"/>
		</g>
		<g>
			<path class="st3" d="M130.1,195.9h-0.5c-17.9,0-21-3.8-21-25.1c0-23.9,3.3-27.2,27.2-27.2c23.9,0,27.2,3.3,27.2,27.2
				c0,21.4-3.1,25.1-21,25.1h-1.5v8.5L130.1,195.9z"/>
			<path class="st0" d="M135.7,145.1c12.5,0,18.3,1.1,21.4,4.2c3.1,3.1,4.2,8.9,4.2,21.4c0,11.1-1,16.8-3.6,19.8
				c-2.4,2.8-6.8,3.8-15.9,3.8h-3v3v3.8l-7.4-6.1l-0.8-0.7h-1.1c-9.1,0-13.5-1.1-15.9-3.8c-2.6-3-3.6-8.7-3.6-19.8
				c0-12.5,1.1-18.3,4.2-21.4S123.1,145.1,135.7,145.1 M135.7,142.1c-24.6,0-28.7,4.1-28.7,28.7c0,22.5,4.1,26.6,22.5,26.6
				l12.3,10.2v-10.2c18.4,0,22.5-4.1,22.5-26.6C164.3,146.2,160.2,142.1,135.7,142.1L135.7,142.1z"/>
		</g>
		<g>
			<path class="st3" d="M90.4,199.2h-0.8c-17.9,0-21-3.8-21-25.1c0-23.9,3.3-27.2,27.2-27.2c23.9,0,27.2,3.3,27.2,27.2
				c0,21.4-3.1,25.1-21,25.1H101l-5.3,8.8L90.4,199.2z"/>
			<path class="st0" d="M95.7,148.4c12.5,0,18.3,1.1,21.4,4.2c3.1,3.1,4.2,8.9,4.2,21.4c0,11.1-1,16.8-3.6,19.8
				c-2.4,2.8-6.8,3.8-15.9,3.8h-1.7l-0.9,1.5l-3.6,6l-3.6-6l-0.9-1.5h-1.7c-9.1,0-13.5-1.1-15.9-3.8c-2.6-3-3.6-8.7-3.6-19.8
				c0-12.5,1.1-18.3,4.2-21.4C77.4,149.5,83.2,148.4,95.7,148.4 M95.7,145.4c-24.6,0-28.7,4.1-28.7,28.7c0,22.5,4.1,26.6,22.5,26.6
				l6.1,10.2l6.1-10.2c18.4,0,22.5-4.1,22.5-26.6C124.4,149.5,120.3,145.4,95.7,145.4L95.7,145.4z"/>
		</g>
	</g>
	<g>
		<g class="st2">
			<polygon class="st3" points="80.5,136.2 104.3,25.2 122.2,137.8 			"/>
			<path class="st0" d="M104.1,33.4l16.3,102.8l-38-1.4L104.1,33.4 M104.5,17.1L78.7,137.6l45.3,1.7L104.5,17.1L104.5,17.1z"/>
		</g>
		<g class="st4">
			<polygon class="st3" points="104.5,136.4 158.8,65.1 140,139.5 			"/>
			<path class="st0" d="M155.5,71.9l-16.6,66l-31.5-2.7L155.5,71.9 M162,58.4l-60.3,79.2l39.5,3.4L162,58.4L162,58.4z"/>
		</g>
		<g class="st5">
			<polygon class="st3" points="40.5,65.3 95.8,136.2 60.7,137 			"/>
			<path class="st0" d="M44,72.3l48.7,62.5l-31,0.7L44,72.3 M37,58.4l22.5,80.2l39.3-0.9L37,58.4L37,58.4z"/>
		</g>
	</g>
</g>
</svg>
