<?xml version="1.0" encoding="utf-8"?>
<!-- Generator: Adobe Illustrator 22.0.1, SVG Export Plug-In . SVG Version: 6.00 Build 0)  -->
<svg version="1.1" id="Layer_1" xmlns="http://www.w3.org/2000/svg" xmlns:xlink="http://www.w3.org/1999/xlink" x="0px" y="0px"
	 viewBox="0 0 194.6 363.8" style="enable-background:new 0 0 194.6 363.8;" xml:space="preserve">
<style type="text/css">
	.st0{fill:#FFFFFF;}
	.st1{fill:#2C314F;}
	.st2{opacity:0.81;}
	.st3{fill:#7ABCFC;}
	.st4{opacity:0.62;}
	.st5{opacity:0.67;}
	.st6{fill:#EFEEE9;}
	.st7{fill:#2C314F;stroke:#EFEEE9;stroke-width:2;stroke-miterlimit:10;}
	.st8{fill:none;stroke:#7ABCFC;stroke-width:4;stroke-miterlimit:10;}
	.st9{fill:#2C314F;stroke:#7ABCFC;stroke-width:2;stroke-miterlimit:10;}
</style>
<g>
	<g>
		<g>
			<path class="st1" d="M38,316.8h-1c-15.2,0-19-2.7-19-22.7c0-21.3,3.2-24.5,24.5-24.5c21.3,0,24.5,3.2,24.5,24.5
				c0,20-3.8,22.7-19,22.7h-0.4l-9.6,8V316.8z"/>
			<path class="st3" d="M42.5,270.6c11.4,0,16.6,1.1,19.5,4s4,8.2,4,19.5c0,10-1,15.3-3.4,18.1c-2.3,2.6-6.4,3.6-14.7,3.6h-0.7
				l-0.6,0.5l-7.7,6.4v-4.8v-2h-2c-8.3,0-12.4-1-14.7-3.6c-2.4-2.8-3.4-8-3.4-18.1c0-11.4,1.1-16.6,4-19.5S31.1,270.6,42.5,270.6
				 M42.5,268.6c-21.9,0-25.5,3.6-25.5,25.5c0,20,3.6,23.7,20,23.7v9.1l10.9-9.1c16.4,0,20-3.6,20-23.7
				C68,272.2,64.3,268.6,42.5,268.6L42.5,268.6z"/>
		</g>
		<g>
			<path class="st1" d="M132.4,320.6h-0.4c-15.2,0-19-2.7-19-22.7c0-21.3,3.2-24.5,24.5-24.5c21.3,0,24.5,3.2,24.5,24.5
				c0,20-3.8,22.7-19,22.7h-1v8L132.4,320.6z"/>
			<path class="st3" d="M137.5,274.4c11.4,0,16.6,1.1,19.5,4c2.9,2.9,4,8.2,4,19.5c0,10-1,15.3-3.4,18.1c-2.3,2.6-6.4,3.6-14.7,3.6
				h-2v2v4.8l-7.7-6.4l-0.6-0.5h-0.7c-8.3,0-12.4-1-14.7-3.6c-2.4-2.8-3.4-8-3.4-18.1c0-11.4,1.1-16.6,4-19.5
				C120.9,275.4,126.2,274.4,137.5,274.4 M137.5,272.4c-21.9,0-25.5,3.6-25.5,25.5c0,20,3.6,23.7,20,23.7l10.9,9.1v-9.1
				c16.4,0,20-3.6,20-23.7C163,276,159.4,272.4,137.5,272.4L137.5,272.4z"/>
		</g>
		<g>
			<path class="st1" d="M48,345h-1c-13.1,0-15.4-2.7-15.4-18.4c0-17.3,2.6-19.9,19.9-19.9s19.9,2.6,19.9,19.9
				c0,15.6-2.3,18.4-15.4,18.4h-0.4l-7.6,6.3V345z"/>
			<path class="st3" d="M51.5,307.8c16.7,0,18.9,2.1,18.9,18.9c0,8.1-0.8,12.3-2.7,14.5c-1.8,2-5.1,2.8-11.7,2.8h-0.7l-0.6,0.5
				l-5.7,4.7V346v-2h-2c-6.7,0-9.9-0.8-11.7-2.8c-1.9-2.2-2.7-6.4-2.7-14.5C32.6,309.9,34.7,307.8,51.5,307.8 M51.5,305.8
				c-17.9,0-20.9,3-20.9,20.9c0,16.4,3,19.4,16.4,19.4v7.4l8.9-7.4c13.4,0,16.4-3,16.4-19.4C72.3,308.8,69.3,305.8,51.5,305.8
				L51.5,305.8z"/>
		</g>
		<g>
			<path class="st1" d="M120.4,343h-0.4c-13.1,0-15.4-2.7-15.4-18.4c0-17.3,2.6-19.9,19.9-19.9s19.9,2.6,19.9,19.9
				c0,15.6-2.3,18.4-15.4,18.4h-1v6.3L120.4,343z"/>
			<path class="st3" d="M124.5,305.8c16.7,0,18.9,2.1,18.9,18.9c0,8.1-0.8,12.3-2.7,14.5c-1.8,2-5.1,2.8-11.7,2.8h-2v2v3.2l-5.7-4.7
				l-0.6-0.5h-0.7c-6.7,0-9.9-0.8-11.7-2.8c-1.9-2.2-2.7-6.4-2.7-14.5C105.7,307.9,107.8,305.8,124.5,305.8 M124.5,303.8
				c-17.9,0-20.9,3-20.9,20.9c0,16.4,3,19.4,16.4,19.4l8.9,7.4V344c13.4,0,16.4-3,16.4-19.4C145.4,306.8,142.4,303.8,124.5,303.8
				L124.5,303.8z"/>
		</g>
		<g>
			<path class="st1" d="M37.8,277h-1c-17.2,0-21.5-3-21.5-25.6c0-24,3.6-27.7,27.7-27.7c24,0,27.7,3.6,27.7,27.7
				c0,22.6-4.3,25.6-21.5,25.6h-0.4l-10.9,9.1V277z"/>
			<path class="st3" d="M43,224.7c23.4,0,26.7,3.2,26.7,26.7c0,11.4-1.1,17.3-3.9,20.4c-2.6,3-7.2,4.2-16.7,4.2h-0.7l-0.6,0.5
				l-9,7.5v-6v-2h-2c-9.5,0-14-1.1-16.7-4.2c-2.7-3.2-3.9-9.1-3.9-20.4C16.3,228,19.5,224.7,43,224.7 M43,222.7
				c-24.6,0-28.7,4.1-28.7,28.7c0,22.5,4.1,26.6,22.5,26.6v10.2L49.1,278c18.4,0,22.5-4.1,22.5-26.6C71.6,226.8,67.5,222.7,43,222.7
				L43,222.7z"/>
		</g>
		<g>
			<path class="st1" d="M84,344.4h-1c-17.2,0-21.5-3-21.5-25.6c0-24,3.6-27.7,27.7-27.7c24,0,27.7,3.6,27.7,27.7
				c0,22.6-4.3,25.6-21.5,25.6h-0.4L84,353.5V344.4z"/>
			<path class="st3" d="M89.1,292.2c23.4,0,26.7,3.2,26.7,26.7c0,11.4-1.1,17.3-3.9,20.4c-2.6,3-7.2,4.2-16.7,4.2h-0.7l-0.6,0.5
				l-9,7.5v-6v-2h-2c-9.5,0-14-1.1-16.7-4.2c-2.7-3.2-3.9-9.1-3.9-20.4C62.5,295.4,65.7,292.2,89.1,292.2 M89.1,290.2
				c-24.6,0-28.7,4.1-28.7,28.7c0,22.5,4.1,26.6,22.5,26.6v10.2l12.3-10.2c18.4,0,22.5-4.1,22.5-26.6
				C117.8,294.3,113.7,290.2,89.1,290.2L89.1,290.2z"/>
		</g>
		<g>
			<path class="st1" d="M39.1,234h-0.4c-17.2,0-21.5-3-21.5-25.6c0-24,3.6-27.7,27.7-27.7c24,0,27.7,3.6,27.7,27.7
				C72.5,231,68.2,234,51,234h-1v9.1L39.1,234z"/>
			<path class="st3" d="M44.9,181.7c23.4,0,26.7,3.2,26.7,26.7c0,11.4-1.1,17.3-3.9,20.4c-2.6,3-7.2,4.2-16.7,4.2h-2v2v6l-9-7.5
				l-0.6-0.5h-0.7c-9.5,0-14-1.1-16.7-4.2c-2.7-3.2-3.9-9.1-3.9-20.4C18.2,185,21.4,181.7,44.9,181.7 M44.9,179.7
				c-24.6,0-28.7,4.1-28.7,28.7c0,22.5,4.1,26.6,22.5,26.6L51,245.3V235c18.4,0,22.5-4.1,22.5-26.6
				C73.5,183.8,69.4,179.7,44.9,179.7L44.9,179.7z"/>
		</g>
		<g>
			<path class="st1" d="M82.4,298.3h-0.6c-17.2,0-21.5-3-21.5-25.6c0-24,3.6-27.7,27.7-27.7s27.7,3.6,27.7,27.7
				c0,22.6-4.3,25.6-21.5,25.6h-0.6l-5.6,9.3L82.4,298.3z"/>
			<path class="st3" d="M87.9,246c23.4,0,26.7,3.2,26.7,26.7c0,11.4-1.1,17.3-3.9,20.4c-2.6,3-7.2,4.2-16.7,4.2h-1.1l-0.6,1
				l-4.4,7.4l-4.4-7.4l-0.6-1h-1.1c-9.5,0-14-1.1-16.7-4.2c-2.7-3.2-3.9-9.1-3.9-20.4C61.3,249.3,64.5,246,87.9,246 M87.9,244
				c-24.6,0-28.7,4.1-28.7,28.7c0,22.5,4.1,26.6,22.5,26.6l6.1,10.2l6.1-10.2c18.4,0,22.5-4.1,22.5-26.6
				C116.6,248.1,112.5,244,87.9,244L87.9,244z"/>
		</g>
		<g>
			<path class="st1" d="M81.1,249.1h-0.4c-17.2,0-21.5-3-21.5-25.6c0-24,3.6-27.7,27.7-27.7c24,0,27.7,3.6,27.7,27.7
				c0,22.6-4.3,25.6-21.5,25.6h-1v9.1L81.1,249.1z"/>
			<path class="st3" d="M86.9,196.8c23.4,0,26.7,3.2,26.7,26.7c0,11.4-1.1,17.3-3.9,20.4c-2.6,3-7.2,4.2-16.7,4.2h-2v2v6l-9-7.5
				l-0.6-0.5h-0.7c-9.5,0-14-1.1-16.7-4.2c-2.7-3.2-3.9-9.1-3.9-20.4C60.2,200.1,63.4,196.8,86.9,196.8 M86.9,194.8
				c-24.6,0-28.7,4.1-28.7,28.7c0,22.5,4.1,26.6,22.5,26.6L93,260.4v-10.2c18.4,0,22.5-4.1,22.5-26.6
				C115.5,198.9,111.4,194.8,86.9,194.8L86.9,194.8z"/>
		</g>
		<g>
			<path class="st1" d="M48,200h-1c-17.2,0-21.5-3-21.5-25.6c0-24,3.6-27.7,27.7-27.7c24,0,27.7,3.6,27.7,27.7
				c0,22.6-4.3,25.6-21.5,25.6h-0.4L48,209.1V200z"/>
			<path class="st3" d="M53.1,147.7c23.4,0,26.7,3.2,26.7,26.7c0,11.4-1.1,17.3-3.9,20.4c-2.6,3-7.2,4.2-16.7,4.2h-0.7l-0.6,0.5
				l-9,7.5v-6v-2h-2c-9.5,0-14-1.1-16.7-4.2c-2.7-3.2-3.9-9.1-3.9-20.4C26.5,150.9,29.7,147.7,53.1,147.7 M53.1,145.7
				c-24.6,0-28.7,4.1-28.7,28.7c0,22.5,4.1,26.6,22.5,26.6v10.2L59.3,201c18.4,0,22.5-4.1,22.5-26.6
				C81.8,149.8,77.7,145.7,53.1,145.7L53.1,145.7z"/>
		</g>
		<g>
			<path class="st1" d="M131.1,281h-0.4c-17.2,0-21.5-3-21.5-25.6c0-24,3.6-27.7,27.7-27.7c24,0,27.7,3.6,27.7,27.7
				c0,22.6-4.3,25.6-21.5,25.6h-1v9.1L131.1,281z"/>
			<path class="st3" d="M136.9,228.7c23.4,0,26.7,3.2,26.7,26.7c0,11.4-1.1,17.3-3.9,20.4c-2.6,3-7.2,4.2-16.7,4.2h-2v2v6l-9-7.5
				l-0.6-0.5h-0.7c-9.5,0-14-1.1-16.7-4.2c-2.7-3.2-3.9-9.1-3.9-20.4C110.2,232,113.4,228.7,136.9,228.7 M136.9,226.7
				c-24.6,0-28.7,4.1-28.7,28.7c0,22.5,4.1,26.6,22.5,26.6l12.3,10.2V282c18.4,0,22.5-4.1,22.5-26.6
				C165.5,230.8,161.4,226.7,136.9,226.7L136.9,226.7z"/>
		</g>
		<g>
			<path class="st1" d="M135,234h-1c-17.2,0-21.5-3-21.5-25.6c0-24,3.6-27.7,27.7-27.7c24,0,27.7,3.6,27.7,27.7
				c0,22.6-4.3,25.6-21.5,25.6h-0.4l-10.9,9.1V234z"/>
			<path class="st3" d="M140.1,181.7c23.4,0,26.7,3.2,26.7,26.7c0,11.4-1.1,17.3-3.9,20.4c-2.6,3-7.2,4.2-16.7,4.2h-0.7l-0.6,0.5
				l-9,7.5v-6v-2h-2c-9.5,0-14-1.1-16.7-4.2c-2.7-3.2-3.9-9.1-3.9-20.4C113.5,184.9,116.7,181.7,140.1,181.7 M140.1,179.7
				c-24.6,0-28.7,4.1-28.7,28.7c0,22.5,4.1,26.6,22.5,26.6v10.2l12.3-10.2c18.4,0,22.5-4.1,22.5-26.6
				C168.8,183.8,164.7,179.7,140.1,179.7L140.1,179.7z"/>
		</g>
		<g>
			<path class="st1" d="M124.1,199h-0.4c-17.2,0-21.5-3-21.5-25.6c0-24,3.6-27.7,27.7-27.7c24,0,27.7,3.6,27.7,27.7
				c0,22.6-4.3,25.6-21.5,25.6h-1v9.1L124.1,199z"/>
			<path class="st3" d="M129.9,146.7c23.4,0,26.7,3.2,26.7,26.7c0,11.4-1.1,17.3-3.9,20.4c-2.6,3-7.2,4.2-16.7,4.2h-2v2v6l-9-7.5
				l-0.6-0.5h-0.7c-9.5,0-14-1.1-16.7-4.2c-2.7-3.2-3.9-9.1-3.9-20.4C103.2,150,106.4,146.7,129.9,146.7 M129.9,144.7
				c-24.6,0-28.7,4.1-28.7,28.7c0,22.5,4.1,26.6,22.5,26.6l12.3,10.2V200c18.4,0,22.5-4.1,22.5-26.6
				C158.5,148.8,154.4,144.7,129.9,144.7L129.9,144.7z"/>
		</g>
		<g>
			<path class="st1" d="M84.4,202.3h-0.6c-17.2,0-21.5-3-21.5-25.6c0-24,3.6-27.7,27.7-27.7s27.7,3.6,27.7,27.7
				c0,22.6-4.3,25.6-21.5,25.6h-0.6l-5.6,9.3L84.4,202.3z"/>
			<path class="st3" d="M89.9,150c23.4,0,26.7,3.2,26.7,26.7c0,11.4-1.1,17.3-3.9,20.4c-2.6,3-7.2,4.2-16.7,4.2h-1.1l-0.6,1
				l-4.4,7.4l-4.4-7.4l-0.6-1h-1.1c-9.5,0-14-1.1-16.7-4.2c-2.7-3.2-3.9-9.1-3.9-20.4C63.3,153.3,66.5,150,89.9,150 M89.9,148
				c-24.6,0-28.7,4.1-28.7,28.7c0,22.5,4.1,26.6,22.5,26.6l6.1,10.2l6.1-10.2c18.4,0,22.5-4.1,22.5-26.6
				C118.6,152.1,114.5,148,89.9,148L89.9,148z"/>
		</g>
	</g>
	<g>
		<g class="st2">
			<polygon class="st3" points="74.1,139.3 98.6,25.1 117,140.9 			"/>
			<path class="st0" d="M98.5,30.6l17.3,109.3l-40.4-1.5L98.5,30.6 M98.7,19.7L72.9,140.2l45.3,1.7L98.7,19.7L98.7,19.7z"/>
		</g>
		<g class="st4">
			<polygon class="st3" points="97.8,139.4 154.1,65.5 134.6,142.6 			"/>
			<path class="st0" d="M151.9,70l-18,71.5l-34.2-3L151.9,70 M156.2,61l-60.3,79.2l39.5,3.4L156.2,61L156.2,61z"/>
		</g>
		<g class="st5">
			<polygon class="st3" points="33.6,65.6 91,139.3 54.5,140.2 			"/>
			<path class="st0" d="M35.9,70.3L89,138.3l-33.7,0.8L35.9,70.3 M31.2,61l22.5,80.2l39.3-0.9L31.2,61L31.2,61z"/>
		</g>
	</g>
</g>
</svg>
