<?xml version="1.0" encoding="utf-8"?>
<!-- Generator: Adobe Illustrator 22.0.1, SVG Export Plug-In . SVG Version: 6.00 Build 0)  -->
<svg version="1.1" id="Layer_1" xmlns="http://www.w3.org/2000/svg" xmlns:xlink="http://www.w3.org/1999/xlink" x="0px" y="0px"
	 viewBox="0 0 180.7 363" style="enable-background:new 0 0 180.7 363;" xml:space="preserve">
<style type="text/css">
	.st0{fill:#FFFFFF;}
	.st1{fill:#2C314F;}
	.st2{opacity:0.81;}
	.st3{fill:#7ABCFC;}
	.st4{opacity:0.62;}
	.st5{opacity:0.67;}
	.st6{fill:#EFEEE9;}
	.st7{fill:#2C314F;stroke:#EFEEE9;stroke-width:2;stroke-miterlimit:10;}
	.st8{fill:none;stroke:#7ABCFC;stroke-width:4;stroke-miterlimit:10;}
	.st9{fill:#2C314F;stroke:#7ABCFC;stroke-width:2;stroke-miterlimit:10;}
</style>
<g>
	<g>
		<g>
			<path class="st0" d="M40.5,313.3H39c-14.8,0-18.5-2.2-18.5-22.2c0-21.1,2.9-24,24-24s24,2.9,24,24c0,20-3.8,22.2-18.5,22.2h-0.5
				l-8.9,7.4V313.3z"/>
			<path class="st3" d="M44.5,268.6c11.1,0,16.2,1,18.8,3.7c2.7,2.7,3.7,7.8,3.7,18.8c0,9.8-0.9,14.8-3.1,17.4
				c-2.1,2.4-6,3.3-13.9,3.3h-1.1l-0.8,0.7l-6,5v-2.7v-3h-3c-8,0-11.9-0.9-13.9-3.3c-2.2-2.6-3.1-7.6-3.1-17.4
				c0-11.1,1-16.2,3.7-18.8C28.3,269.6,33.4,268.6,44.5,268.6 M44.5,265.6c-21.9,0-25.5,3.6-25.5,25.5c0,20,3.6,23.7,20,23.7v9.1
				l10.9-9.1c16.4,0,20-3.6,20-23.7C70,269.3,66.3,265.6,44.5,265.6L44.5,265.6z"/>
		</g>
		<g>
			<path class="st0" d="M134.6,317.1h-0.5c-14.8,0-18.5-2.2-18.5-22.2c0-21.1,2.9-24,24-24s24,2.9,24,24c0,20-3.8,22.2-18.5,22.2
				h-1.5v7.4L134.6,317.1z"/>
			<path class="st3" d="M139.5,272.4c11.1,0,16.2,1,18.8,3.7c2.7,2.7,3.7,7.8,3.7,18.8c0,9.8-0.9,14.8-3.1,17.4
				c-2.1,2.4-6,3.3-13.9,3.3h-3v3v2.7l-6-5l-0.8-0.7h-1.1c-8,0-11.9-0.9-13.9-3.3c-2.2-2.6-3.1-7.6-3.1-17.4c0-11.1,1-16.2,3.7-18.8
				C123.4,273.4,128.5,272.4,139.5,272.4 M139.5,269.4c-21.9,0-25.5,3.6-25.5,25.5c0,20,3.6,23.7,20,23.7l10.9,9.1v-9.1
				c16.4,0,20-3.6,20-23.7C165,273,161.4,269.4,139.5,269.4L139.5,269.4z"/>
		</g>
		<g>
			<path class="st0" d="M50.5,341.6H49c-13.5,0-14.9-3.4-14.9-17.9c0-17,2.4-19.4,19.4-19.4c17,0,19.4,2.4,19.4,19.4
				c0,16.2-2.8,17.9-14.9,17.9h-0.5l-6.9,5.7V341.6z"/>
			<path class="st3" d="M53.5,305.8c8.8,0,13,0.8,15,2.8s2.8,6.3,2.8,15c0,7.8-0.7,11.9-2.4,13.9c-1.6,1.8-4.6,2.5-11,2.5h-1.1
				l-0.8,0.7l-4,3.3v-1v-3h-3c-6.3,0-9.4-0.7-11-2.5c-1.7-2-2.4-6.1-2.4-13.9c0-8.8,0.8-13,2.8-15S44.7,305.8,53.5,305.8
				 M53.5,302.8c-17.9,0-20.9,3-20.9,20.9c0,16.4,3,19.4,16.4,19.4v7.4l8.9-7.4c13.4,0,16.4-3,16.4-19.4
				C74.3,305.8,71.3,302.8,53.5,302.8L53.5,302.8z"/>
		</g>
		<g>
			<path class="st0" d="M122.6,339.6h-0.5c-13.5,0-14.9-3.4-14.9-17.9c0-17,2.4-19.4,19.4-19.4c17,0,19.4,2.4,19.4,19.4
				c0,16.2-2.8,17.9-14.9,17.9h-1.5v5.7L122.6,339.6z"/>
			<path class="st3" d="M126.5,303.8c8.8,0,13,0.8,15,2.8s2.8,6.3,2.8,15c0,7.8-0.7,11.9-2.4,13.9c-1.6,1.8-4.6,2.5-11,2.5h-3v3v1
				l-4-3.3l-0.8-0.7h-1.1c-6.3,0-9.4-0.7-11-2.5c-1.7-2-2.4-6.1-2.4-13.9c0-8.8,0.8-13,2.8-15S117.8,303.8,126.5,303.8 M126.5,300.8
				c-17.9,0-20.9,3-20.9,20.9c0,16.4,3,19.4,16.4,19.4l8.9,7.4v-7.4c13.4,0,16.4-3,16.4-19.4C147.4,303.8,144.4,300.8,126.5,300.8
				L126.5,300.8z"/>
		</g>
		<g>
			<path class="st0" d="M40.3,273.6h-1.5c-17.9,0-21-3.8-21-25.1c0-23.9,3.3-27.2,27.2-27.2c23.9,0,27.2,3.3,27.2,27.2
				c0,21.4-3.1,25.1-21,25.1h-0.5l-10.2,8.5V273.6z"/>
			<path class="st3" d="M45,222.8c12.5,0,18.3,1.1,21.4,4.2c3.1,3.1,4.2,8.9,4.2,21.4c0,11.1-1,16.8-3.6,19.8
				c-2.4,2.8-6.8,3.8-15.9,3.8H50l-0.8,0.7l-7.4,6.1v-3.8v-3h-3c-9.1,0-13.5-1.1-15.9-3.8c-2.6-3-3.6-8.7-3.6-19.8
				c0-12.5,1.1-18.3,4.2-21.4C26.6,223.9,32.4,222.8,45,222.8 M45,219.8c-24.6,0-28.7,4.1-28.7,28.7c0,22.5,4.1,26.6,22.5,26.6v10.2
				l12.3-10.2c18.4,0,22.5-4.1,22.5-26.6C73.6,223.9,69.5,219.8,45,219.8L45,219.8z"/>
		</g>
		<g>
			<path class="st0" d="M86.5,341H85c-17.9,0-21-3.8-21-25.1c0-23.9,3.3-27.2,27.2-27.2c23.9,0,27.2,3.3,27.2,27.2
				c0,21.4-3.1,25.1-21,25.1h-0.5l-10.2,8.5V341z"/>
			<path class="st3" d="M91.1,290.2c12.5,0,18.3,1.1,21.4,4.2s4.2,8.9,4.2,21.4c0,11.1-1,16.8-3.6,19.8c-2.4,2.8-6.8,3.8-15.9,3.8
				h-1.1l-0.8,0.7l-7.4,6.1v-3.8v-3h-3c-9.1,0-13.5-1.1-15.9-3.8c-2.6-3-3.6-8.7-3.6-19.8c0-12.5,1.1-18.3,4.2-21.4
				S78.6,290.2,91.1,290.2 M91.1,287.2c-24.6,0-28.7,4.1-28.7,28.7c0,22.5,4.1,26.6,22.5,26.6v10.2l12.3-10.2
				c18.4,0,22.5-4.1,22.5-26.6C119.8,291.3,115.7,287.2,91.1,287.2L91.1,287.2z"/>
		</g>
		<g>
			<path class="st0" d="M41.3,230.6h-0.5c-17.9,0-21-3.8-21-25.1c0-23.9,3.3-27.2,27.2-27.2c23.9,0,27.2,3.3,27.2,27.2
				c0,21.4-3.1,25.1-21,25.1h-1.5v8.5L41.3,230.6z"/>
			<path class="st3" d="M46.9,179.8c12.5,0,18.3,1.1,21.4,4.2s4.2,8.9,4.2,21.4c0,11.1-1,16.8-3.6,19.8c-2.4,2.8-6.8,3.8-15.9,3.8
				h-3v3v3.8l-7.4-6.1l-0.8-0.7h-1.1c-9.1,0-13.5-1.1-15.9-3.8c-2.6-3-3.6-8.7-3.6-19.8c0-12.5,1.1-18.3,4.2-21.4
				S34.3,179.8,46.9,179.8 M46.9,176.8c-24.6,0-28.7,4.1-28.7,28.7c0,22.5,4.1,26.6,22.5,26.6L53,242.3v-10.2
				c18.4,0,22.5-4.1,22.5-26.6C75.5,180.9,71.4,176.8,46.9,176.8L46.9,176.8z"/>
		</g>
		<g>
			<path class="st0" d="M84.6,294.8h-0.8c-17.9,0-21-3.8-21-25.1c0-23.9,3.3-27.2,27.2-27.2s27.2,3.3,27.2,27.2
				c0,21.4-3.1,25.1-21,25.1h-0.8l-5.3,8.8L84.6,294.8z"/>
			<path class="st3" d="M89.9,244.1c12.5,0,18.3,1.1,21.4,4.2s4.2,8.9,4.2,21.4c0,11.1-1,16.8-3.6,19.8c-2.4,2.8-6.8,3.8-15.9,3.8
				h-1.7l-0.9,1.5l-3.6,6l-3.6-6l-0.9-1.5h-1.7c-9.1,0-13.5-1.1-15.9-3.8c-2.6-3-3.6-8.7-3.6-19.8c0-12.5,1.1-18.3,4.2-21.4
				S77.4,244.1,89.9,244.1 M89.9,241.1c-24.6,0-28.7,4.1-28.7,28.7c0,22.5,4.1,26.6,22.5,26.6l6.1,10.2l6.1-10.2
				c18.4,0,22.5-4.1,22.5-26.6C118.6,245.1,114.5,241.1,89.9,241.1L89.9,241.1z"/>
		</g>
		<g>
			<path class="st0" d="M83.3,245.6h-0.5c-17.9,0-21-3.8-21-25.1c0-23.9,3.3-27.2,27.2-27.2c23.9,0,27.2,3.3,27.2,27.2
				c0,21.4-3.1,25.1-21,25.1h-1.5v8.5L83.3,245.6z"/>
			<path class="st3" d="M88.9,194.9c12.5,0,18.3,1.1,21.4,4.2c3.1,3.1,4.2,8.9,4.2,21.4c0,11.1-1,16.8-3.6,19.8
				c-2.4,2.8-6.8,3.8-15.9,3.8h-3v3v3.8l-7.4-6.1l-0.8-0.7h-1.1c-9.1,0-13.5-1.1-15.9-3.8c-2.6-3-3.6-8.7-3.6-19.8
				c0-12.5,1.1-18.3,4.2-21.4C70.5,196,76.3,194.9,88.9,194.9 M88.9,191.9c-24.6,0-28.7,4.1-28.7,28.7c0,22.5,4.1,26.6,22.5,26.6
				L95,257.4v-10.2c18.4,0,22.5-4.1,22.5-26.6C117.5,196,113.4,191.9,88.9,191.9L88.9,191.9z"/>
		</g>
		<g>
			<path class="st0" d="M50.5,196.5H49c-17.9,0-21-3.8-21-25.1c0-23.9,3.3-27.2,27.2-27.2c23.9,0,27.2,3.3,27.2,27.2
				c0,21.4-3.1,25.1-21,25.1h-0.5L50.5,205V196.5z"/>
			<path class="st3" d="M55.1,145.7c12.5,0,18.3,1.1,21.4,4.2c3.1,3.1,4.2,8.9,4.2,21.4c0,11.1-1,16.8-3.6,19.8
				c-2.4,2.8-6.8,3.8-15.9,3.8h-1.1l-0.8,0.7l-7.4,6.1V198v-3h-3c-9.1,0-13.5-1.1-15.9-3.8c-2.6-3-3.6-8.7-3.6-19.8
				c0-12.5,1.1-18.3,4.2-21.4C36.8,146.9,42.6,145.7,55.1,145.7 M55.1,142.7c-24.6,0-28.7,4.1-28.7,28.7c0,22.5,4.1,26.6,22.5,26.6
				v10.2L61.3,198c18.4,0,22.5-4.1,22.5-26.6C83.8,146.8,79.7,142.7,55.1,142.7L55.1,142.7z"/>
		</g>
		<g>
			<path class="st0" d="M133.3,277.6h-0.5c-17.9,0-21-3.8-21-25.1c0-23.9,3.3-27.2,27.2-27.2c23.9,0,27.2,3.3,27.2,27.2
				c0,21.4-3.1,25.1-21,25.1h-1.5v8.5L133.3,277.6z"/>
			<path class="st3" d="M138.9,226.8c12.5,0,18.3,1.1,21.4,4.2c3.1,3.1,4.2,8.9,4.2,21.4c0,11.1-1,16.8-3.6,19.8
				c-2.4,2.8-6.8,3.8-15.9,3.8h-3v3v3.8l-7.4-6.1l-0.8-0.7h-1.1c-9.1,0-13.5-1.1-15.9-3.8c-2.6-3-3.6-8.7-3.6-19.8
				c0-12.5,1.1-18.3,4.2-21.4C120.5,227.9,126.3,226.8,138.9,226.8 M138.9,223.8c-24.6,0-28.7,4.1-28.7,28.7
				c0,22.5,4.1,26.6,22.5,26.6l12.3,10.2v-10.2c18.4,0,22.5-4.1,22.5-26.6C167.5,227.9,163.4,223.8,138.9,223.8L138.9,223.8z"/>
		</g>
		<g>
			<path class="st0" d="M137.5,230.5H136c-17.9,0-21-3.8-21-25.1c0-23.9,3.3-27.2,27.2-27.2c23.9,0,27.2,3.3,27.2,27.2
				c0,21.4-3.1,25.1-21,25.1h-0.5l-10.2,8.5V230.5z"/>
			<path class="st3" d="M142.1,179.7c12.5,0,18.3,1.1,21.4,4.2c3.1,3.1,4.2,8.9,4.2,21.4c0,11.1-1,16.8-3.6,19.8
				c-2.4,2.8-6.8,3.8-15.9,3.8h-1.1l-0.8,0.7l-7.4,6.1V232v-3h-3c-9.1,0-13.5-1.1-15.9-3.8c-2.6-3-3.6-8.7-3.6-19.8
				c0-12.5,1.1-18.3,4.2-21.4C123.8,180.9,129.6,179.7,142.1,179.7 M142.1,176.7c-24.6,0-28.7,4.1-28.7,28.7
				c0,22.5,4.1,26.6,22.5,26.6v10.2l12.3-10.2c18.4,0,22.5-4.1,22.5-26.6C170.8,180.8,166.7,176.7,142.1,176.7L142.1,176.7z"/>
		</g>
		<g>
			<path class="st0" d="M126.3,195.6h-0.5c-17.9,0-21-3.8-21-25.1c0-23.9,3.3-27.2,27.2-27.2c23.9,0,27.2,3.3,27.2,27.2
				c0,21.4-3.1,25.1-21,25.1h-1.5v8.5L126.3,195.6z"/>
			<path class="st3" d="M131.9,144.8c12.5,0,18.3,1.1,21.4,4.2s4.2,8.9,4.2,21.4c0,11.1-1,16.8-3.6,19.8c-2.4,2.8-6.8,3.8-15.9,3.8
				h-3v3v3.8l-7.4-6.1l-0.8-0.7h-1.1c-9.1,0-13.5-1.1-15.9-3.8c-2.6-3-3.6-8.7-3.6-19.8c0-12.5,1.1-18.3,4.2-21.4
				S119.3,144.8,131.9,144.8 M131.9,141.8c-24.6,0-28.7,4.1-28.7,28.7c0,22.5,4.1,26.6,22.5,26.6l12.3,10.2v-10.2
				c18.4,0,22.5-4.1,22.5-26.6C160.5,145.9,156.4,141.8,131.9,141.8L131.9,141.8z"/>
		</g>
		<g>
			<path class="st0" d="M86.6,198.8h-0.8c-17.9,0-21-3.8-21-25.1c0-23.9,3.3-27.2,27.2-27.2s27.2,3.3,27.2,27.2
				c0,21.4-3.1,25.1-21,25.1h-0.8l-5.3,8.8L86.6,198.8z"/>
			<path class="st3" d="M91.9,148.1c12.5,0,18.3,1.1,21.4,4.2c3.1,3.1,4.2,8.9,4.2,21.4c0,11.1-1,16.8-3.6,19.8
				c-2.4,2.8-6.8,3.8-15.9,3.8h-1.7l-0.9,1.5l-3.6,6l-3.6-6l-0.9-1.5h-1.7c-9.1,0-13.5-1.1-15.9-3.8c-2.6-3-3.6-8.7-3.6-19.8
				c0-12.5,1.1-18.3,4.2-21.4C73.6,149.2,79.4,148.1,91.9,148.1 M91.9,145.1c-24.6,0-28.7,4.1-28.7,28.7c0,22.5,4.1,26.6,22.5,26.6
				l6.1,10.2l6.1-10.2c18.4,0,22.5-4.1,22.5-26.6C120.6,149.1,116.5,145.1,91.9,145.1L91.9,145.1z"/>
		</g>
	</g>
	<g>
		<g class="st2">
			<polygon class="st3" points="76.7,135.8 100.5,24.9 118.4,137.4 			"/>
			<path class="st0" d="M100.3,33.1l16.3,102.8l-38-1.4L100.3,33.1 M100.7,16.7L74.9,137.3l45.3,1.7L100.7,16.7L100.7,16.7z"/>
		</g>
		<g class="st4">
			<polygon class="st3" points="100.7,136 155,64.8 136.2,139.1 			"/>
			<path class="st0" d="M151.7,71.5l-16.6,66l-31.5-2.7L151.7,71.5 M158.2,58.1l-60.3,79.2l39.5,3.4L158.2,58.1L158.2,58.1z"/>
		</g>
		<g class="st5">
			<polygon class="st3" points="36.7,65 92,135.8 56.9,136.7 			"/>
			<path class="st0" d="M40.2,71.9L89,134.4l-31,0.7L40.2,71.9 M33.2,58.1l22.5,80.2l39.3-0.9L33.2,58.1L33.2,58.1z"/>
		</g>
	</g>
</g>
</svg>
