<?xml version="1.0" encoding="utf-8"?>
<!-- Generator: Adobe Illustrator 22.0.1, SVG Export Plug-In . SVG Version: 6.00 Build 0)  -->
<svg version="1.1" id="Layer_1" xmlns="http://www.w3.org/2000/svg" xmlns:xlink="http://www.w3.org/1999/xlink" x="0px" y="0px"
	 viewBox="0 0 206.5 362.6" style="enable-background:new 0 0 206.5 362.6;" xml:space="preserve">
<style type="text/css">
	.st0{fill:#FFFFFF;}
	.st1{fill:#2C314F;}
	.st2{opacity:0.81;}
	.st3{fill:#7ABCFC;}
	.st4{opacity:0.62;}
	.st5{opacity:0.67;}
	.st6{fill:#EFEEE9;}
	.st7{fill:#2C314F;stroke:#EFEEE9;stroke-width:2;stroke-miterlimit:10;}
	.st8{fill:none;stroke:#7ABCFC;stroke-width:4;stroke-miterlimit:10;}
	.st9{fill:#2C314F;stroke:#7ABCFC;stroke-width:2;stroke-miterlimit:10;}
</style>
<g>
	<g>
		<g class="st2">
			<polygon class="st3" points="77.5,143.2 101.3,32.3 119.2,144.8 			"/>
			<path class="st0" d="M101.1,40.5l16.3,102.8l-38-1.4L101.1,40.5 M101.5,24.1L75.7,144.7l45.3,1.7L101.5,24.1L101.5,24.1z"/>
		</g>
		<g class="st4">
			<polygon class="st3" points="101.5,143.4 155.8,72.2 137,146.5 			"/>
			<path class="st0" d="M152.5,78.9l-16.6,66l-31.5-2.7L152.5,78.9 M159,65.5l-60.3,79.2l39.5,3.4L159,65.5L159,65.5z"/>
		</g>
		<g class="st5">
			<polygon class="st3" points="37.5,72.4 92.8,143.2 57.7,144.1 			"/>
			<path class="st0" d="M41,79.3l48.7,62.5l-31,0.7L41,79.3 M34,65.5l22.5,80.2l39.3-0.9L34,65.5L34,65.5z"/>
		</g>
	</g>
	<g>
		<g>
			<polygon class="st1" points="91.4,332.1 69.3,332.1 69.3,275.3 126.2,275.3 126.2,332.1 104,332.1 97.7,340.5 			"/>
			<path class="st3" d="M125.2,276.3v54.8h-20.6h-1l-0.6,0.8l-5.2,6.9l-5.2-6.9l-0.6-0.8h-1H70.3v-54.8H125.2 M127.2,274.3H68.3
				v58.8h22.6l6.8,9.1l6.8-9.1h22.6V274.3L127.2,274.3z"/>
		</g>
		<g>
			<polygon class="st1" points="137.2,318.5 114.6,318.5 114.6,261.7 171.4,261.7 171.4,318.5 149.4,318.5 137.2,330.7 			"/>
			<path class="st3" d="M170.4,262.7v54.8h-20.6H149l-0.6,0.6l-10.2,10.2v-8.8v-2h-2h-20.6v-54.8H170.4 M172.4,260.7h-58.8v58.8
				h22.6v13.6l13.6-13.6h22.6V260.7L172.4,260.7z"/>
		</g>
		<g>
			<polygon class="st1" points="48.4,320.8 26.3,320.8 26.3,264 83.2,264 83.2,320.8 60.5,320.8 60.5,333 			"/>
			<path class="st3" d="M82.2,265v54.8H61.5h-2v2v8.8l-10.2-10.2l-0.6-0.6h-0.8H27.3V265H82.2 M84.2,263H25.3v58.8h22.6l13.6,13.6
				v-13.6h22.6V263L84.2,263z"/>
		</g>
		<g>
			<polygon class="st1" points="150.8,266.5 128.2,266.5 128.2,209.6 185,209.6 185,266.5 163,266.5 150.8,278.7 			"/>
			<path class="st3" d="M184,210.6v54.8h-20.6h-0.8l-0.6,0.6l-10.2,10.2v-8.8v-2h-2h-20.6v-54.8H184 M186,208.6h-58.8v58.8h22.6
				v13.6l13.6-13.6H186V208.6L186,208.6z"/>
		</g>
		<g>
			<polygon class="st1" points="37,266.5 15,266.5 15,209.6 71.8,209.6 71.8,266.5 49.2,266.5 49.2,278.7 			"/>
			<path class="st3" d="M70.8,210.6v54.8H50.2h-2v2v8.8L38,266.1l-0.6-0.6h-0.8H16v-54.8H70.8 M72.8,208.6H14v58.8h22.6l13.6,13.6
				v-13.6h22.6V208.6L72.8,208.6z"/>
		</g>
		<g>
			<polygon class="st1" points="93.7,277.8 71.6,277.8 71.6,221 128.4,221 128.4,277.8 106.3,277.8 100,286.2 			"/>
			<path class="st3" d="M127.4,222v54.8h-20.6h-1l-0.6,0.8l-5.2,6.9l-5.2-6.9l-0.6-0.8h-1H72.6V222H127.4 M129.4,220H70.6v58.8h22.6
				l6.8,9.1l6.8-9.1h22.6V220L129.4,220z"/>
		</g>
		<g>
			<polygon class="st1" points="94.2,219 71.6,219 71.6,162.1 128.4,162.1 128.4,219 106.4,219 94.2,231.1 			"/>
			<path class="st3" d="M127.4,163.1V218h-20.6H106l-0.6,0.6l-10.2,10.2V220v-2h-2H72.6v-54.8H127.4 M129.4,161.1H70.6V220h22.6
				v13.6l13.6-13.6h22.6V161.1L129.4,161.1z"/>
		</g>
		<g>
			<polygon class="st1" points="141.7,209.9 119.1,209.9 119.1,153.1 175.9,153.1 175.9,209.9 153.9,209.9 141.7,222.1 			"/>
			<path class="st3" d="M174.9,154.1v54.8h-20.6h-0.8l-0.6,0.6l-10.2,10.2v-8.8v-2h-2h-20.6v-54.8H174.9 M176.9,152.1h-58.8v58.8
				h22.6v13.6l13.6-13.6h22.6V152.1L176.9,152.1z"/>
		</g>
		<g>
			<polygon class="st1" points="46.1,209.9 24.1,209.9 24.1,153.1 80.9,153.1 80.9,209.9 58.3,209.9 58.3,222.1 			"/>
			<path class="st3" d="M79.9,154.1v54.8H59.3h-2v2v8.8l-10.2-10.2l-0.6-0.6h-0.8H25.1v-54.8H79.9 M81.9,152.1H23.1v58.8h22.6
				l13.6,13.6v-13.6h22.6V152.1L81.9,152.1z"/>
		</g>
	</g>
</g>
</svg>
